<svg height="512" viewBox="0 0 64 64" width="512" xmlns="http://www.w3.org/2000/svg"><g id="Layer_15" data-name="Layer 15"><path d="m25 14a7 7 0 0 0 -7-7 7 7 0 0 0 -7 7v39h14z" fill="#296cb2"/><path d="m19 7.08a6.994 6.994 0 0 0 -6 6.92v39h12v-39a6.994 6.994 0 0 0 -6-6.92z" fill="#5489c1"/><path d="m8 11h48v4h-48z" fill="#858687"/><path d="m8 11h48v3h-48z" fill="#9d9e9f"/><rect fill="#a78966" height="12" rx="3" width="6" x="2" y="7"/><path d="m5.5 7.05a3 3 0 0 0 -2.5 2.95v6a3 3 0 0 0 2.5 2.95 3 3 0 0 0 2.5-2.95v-6a3 3 0 0 0 -2.5-2.95z" fill="#b39a7c"/><rect fill="#a78966" height="12" rx="3" width="6" x="56" y="7"/><path d="m59.5 7.05a3 3 0 0 0 -2.5 2.95v6a3 3 0 0 0 2.5 2.95 3 3 0 0 0 2.5-2.95v-6a3 3 0 0 0 -2.5-2.95z" fill="#b39a7c"/><path d="m11 49h14v4h-14z" fill="#bce4f8"/><path d="m13 49h12v4h-12z" fill="#e3f4fc"/><path d="m45 7h-27a7 7 0 0 1 7 7v43h26v-44a6 6 0 0 0 -6-6z" fill="#4e97d0"/><path d="m18 7a7 7 0 0 1 7 7v43h22v-44a6 6 0 0 0 -6-6z" fill="#71acd9"/><rect fill="#8dbde1" height="6" rx="3" width="12" x="32" y="9"/><path d="m25 53h26v4h-26z" fill="#bce4f8"/><path d="m25 53h22v4h-22z" fill="#e3f4fc"/></g></svg>